# MagicaVoxel @ Ephtracy

# group
o 

# material
mtllib Office-Wall-Top.mtl
usemtl palette

# normals
vn -1 0 0
vn 1 0 0
vn 0 0 1
vn 0 0 -1
vn 0 -1 0
vn 0 1 0

# texcoords
vt 0.951172 0.5
vt 0.970703 0.5
vt 0.986328 0.5

# verts
v -9.6 0 0.5
v -9.6 0 -0.5
v -9.6 1.5 0.5
v -9.6 1.5 0.3
v -9.6 19.2 0.3
v -9.6 19.2 -0.5
v -9.53674e-07 0 0.3
v -9.53674e-07 0 0.2
v -9.53674e-07 1.5 0.3
v -9.53674e-07 19.2 0.3
v -9.53674e-07 19.2 0.2
v 7.2 2 0.4
v 7.2 2 0.3
v 7.2 2.9 0.4
v 7.2 2.9 0.3
v 7.5 2.1 0.4
v 7.5 2.1 0.3
v 7.5 2.8 0.4
v 7.5 2.8 0.3
v 7.7 2.1 0.4
v 7.7 2.1 0.3
v 7.7 2.8 0.4
v 7.7 2.8 0.3
v 7.9 2.1 0.4
v 7.9 2.1 0.3
v 7.9 2.8 0.4
v 7.9 2.8 0.3
v 8.1 2.1 0.4
v 8.1 2.1 0.3
v 8.1 2.8 0.4
v 8.1 2.8 0.3
v 8.3 2.1 0.4
v 8.3 2.1 0.3
v 8.3 2.8 0.4
v 8.3 2.8 0.3
v 8.5 2.1 0.4
v 8.5 2.1 0.3
v 8.5 2.8 0.4
v 8.5 2.8 0.3
v 8.7 2.1 0.4
v 8.7 2.1 0.3
v 8.7 2.8 0.4
v 8.7 2.8 0.3
v 8.9 2.1 0.4
v 8.9 2.1 0.3
v 8.9 2.8 0.4
v 8.9 2.8 0.3
v -0.200001 0 0.3
v -0.200001 0 0.2
v -0.200001 1.5 0.3
v -0.200001 19.2 0.3
v -0.200001 19.2 0.2
v 7.4 2.1 0.4
v 7.4 2.1 0.3
v 7.4 2.8 0.4
v 7.4 2.8 0.3
v 7.6 2.1 0.4
v 7.6 2.1 0.3
v 7.6 2.8 0.4
v 7.6 2.8 0.3
v 7.8 2.1 0.4
v 7.8 2.1 0.3
v 7.8 2.8 0.4
v 7.8 2.8 0.3
v 8 2.1 0.4
v 8 2.1 0.3
v 8 2.8 0.4
v 8 2.8 0.3
v 8.2 2.1 0.4
v 8.2 2.1 0.3
v 8.2 2.8 0.4
v 8.2 2.8 0.3
v 8.4 2.1 0.4
v 8.4 2.1 0.3
v 8.4 2.8 0.4
v 8.4 2.8 0.3
v 8.6 2.1 0.4
v 8.6 2.1 0.3
v 8.6 2.8 0.4
v 8.6 2.8 0.3
v 8.8 2.1 0.4
v 8.8 2.1 0.3
v 8.8 2.8 0.4
v 8.8 2.8 0.3
v 9.1 2 0.4
v 9.1 2 0.3
v 9.1 2.9 0.4
v 9.1 2.9 0.3
v 9.6 0 0.5
v 9.6 0 -0.5
v 9.6 1.5 0.5
v 9.6 1.5 0.3
v 9.6 19.2 0.3
v 9.6 19.2 -0.5
v -9.6 0 0.5
v -9.6 1.5 0.5
v 9.6 0 0.5
v 9.6 1.5 0.5
v 7.2 2 0.4
v 7.2 2.9 0.4
v 7.4 2.1 0.4
v 7.4 2.8 0.4
v 7.5 2.1 0.4
v 7.5 2.8 0.4
v 7.6 2.1 0.4
v 7.6 2.8 0.4
v 7.7 2.1 0.4
v 7.7 2.8 0.4
v 7.8 2.1 0.4
v 7.8 2.8 0.4
v 7.9 2.1 0.4
v 7.9 2.8 0.4
v 8 2.1 0.4
v 8 2.8 0.4
v 8.1 2.1 0.4
v 8.1 2.8 0.4
v 8.2 2.1 0.4
v 8.2 2.8 0.4
v 8.3 2.1 0.4
v 8.3 2.8 0.4
v 8.4 2.1 0.4
v 8.4 2.8 0.4
v 8.5 2.1 0.4
v 8.5 2.8 0.4
v 8.6 2.1 0.4
v 8.6 2.8 0.4
v 8.7 2.1 0.4
v 8.7 2.8 0.4
v 8.8 2.1 0.4
v 8.8 2.8 0.4
v 8.9 2.1 0.4
v 8.9 2.8 0.4
v 9.1 2 0.4
v 9.1 2.9 0.4
v -9.6 1.5 0.3
v -9.6 19.2 0.3
v -0.200001 1.5 0.3
v -0.200001 19.2 0.3
v -9.53674e-07 1.5 0.3
v -9.53674e-07 19.2 0.3
v 7.2 2 0.3
v 7.2 2.9 0.3
v 7.4 2.1 0.3
v 7.4 2.8 0.3
v 7.5 2.1 0.3
v 7.5 2.8 0.3
v 7.6 2.1 0.3
v 7.6 2.8 0.3
v 7.7 2.1 0.3
v 7.7 2.8 0.3
v 7.8 2.1 0.3
v 7.8 2.8 0.3
v 7.9 2.1 0.3
v 7.9 2.8 0.3
v 8 2.1 0.3
v 8 2.8 0.3
v 8.1 2.1 0.3
v 8.1 2.8 0.3
v 8.2 2.1 0.3
v 8.2 2.8 0.3
v 8.3 2.1 0.3
v 8.3 2.8 0.3
v 8.4 2.1 0.3
v 8.4 2.8 0.3
v 8.5 2.1 0.3
v 8.5 2.8 0.3
v 8.6 2.1 0.3
v 8.6 2.8 0.3
v 8.7 2.1 0.3
v 8.7 2.8 0.3
v 8.8 2.1 0.3
v 8.8 2.8 0.3
v 8.9 2.1 0.3
v 8.9 2.8 0.3
v 9.1 2 0.3
v 9.1 2.9 0.3
v 9.6 1.5 0.3
v 9.6 19.2 0.3
v -0.200001 0 0.2
v -0.200001 19.2 0.2
v -9.53674e-07 0 0.2
v -9.53674e-07 19.2 0.2
v -0.200001 0 0.3
v -0.200001 1.5 0.3
v -9.53674e-07 0 0.3
v -9.53674e-07 1.5 0.3
v -9.6 0 -0.5
v -9.6 19.2 -0.5
v 9.6 0 -0.5
v 9.6 19.2 -0.5
v -9.6 0 0.5
v 9.6 0 0.5
v -0.200001 0 0.3
v -9.53674e-07 0 0.3
v -0.200001 0 0.2
v -9.53674e-07 0 0.2
v -9.6 0 -0.5
v 9.6 0 -0.5
v 7.2 2 0.4
v 9.1 2 0.4
v 7.2 2 0.3
v 9.1 2 0.3
v 7.4 2.8 0.4
v 7.5 2.8 0.4
v 7.6 2.8 0.4
v 7.7 2.8 0.4
v 7.8 2.8 0.4
v 7.9 2.8 0.4
v 8 2.8 0.4
v 8.1 2.8 0.4
v 8.2 2.8 0.4
v 8.3 2.8 0.4
v 8.4 2.8 0.4
v 8.5 2.8 0.4
v 8.6 2.8 0.4
v 8.7 2.8 0.4
v 8.8 2.8 0.4
v 8.9 2.8 0.4
v 7.4 2.8 0.3
v 7.5 2.8 0.3
v 7.6 2.8 0.3
v 7.7 2.8 0.3
v 7.8 2.8 0.3
v 7.9 2.8 0.3
v 8 2.8 0.3
v 8.1 2.8 0.3
v 8.2 2.8 0.3
v 8.3 2.8 0.3
v 8.4 2.8 0.3
v 8.5 2.8 0.3
v 8.6 2.8 0.3
v 8.7 2.8 0.3
v 8.8 2.8 0.3
v 8.9 2.8 0.3
v -9.6 1.5 0.5
v 9.6 1.5 0.5
v -9.6 1.5 0.3
v -0.200001 1.5 0.3
v -9.53674e-07 1.5 0.3
v 9.6 1.5 0.3
v 7.4 2.1 0.4
v 7.5 2.1 0.4
v 7.6 2.1 0.4
v 7.7 2.1 0.4
v 7.8 2.1 0.4
v 7.9 2.1 0.4
v 8 2.1 0.4
v 8.1 2.1 0.4
v 8.2 2.1 0.4
v 8.3 2.1 0.4
v 8.4 2.1 0.4
v 8.5 2.1 0.4
v 8.6 2.1 0.4
v 8.7 2.1 0.4
v 8.8 2.1 0.4
v 8.9 2.1 0.4
v 7.4 2.1 0.3
v 7.5 2.1 0.3
v 7.6 2.1 0.3
v 7.7 2.1 0.3
v 7.8 2.1 0.3
v 7.9 2.1 0.3
v 8 2.1 0.3
v 8.1 2.1 0.3
v 8.2 2.1 0.3
v 8.3 2.1 0.3
v 8.4 2.1 0.3
v 8.5 2.1 0.3
v 8.6 2.1 0.3
v 8.7 2.1 0.3
v 8.8 2.1 0.3
v 8.9 2.1 0.3
v 7.2 2.9 0.4
v 9.1 2.9 0.4
v 7.2 2.9 0.3
v 9.1 2.9 0.3
v -9.6 19.2 0.3
v -0.200001 19.2 0.3
v -9.53674e-07 19.2 0.3
v 9.6 19.2 0.3
v -0.200001 19.2 0.2
v -9.53674e-07 19.2 0.2
v -9.6 19.2 -0.5
v 9.6 19.2 -0.5

# faces
f 3/2/1 2/2/1 1/2/1
f 4/2/1 2/2/1 3/2/1
f 5/2/1 2/2/1 4/2/1
f 6/2/1 2/2/1 5/2/1
f 9/2/1 8/2/1 7/2/1
f 10/2/1 8/2/1 9/2/1
f 11/2/1 8/2/1 10/2/1
f 14/1/1 13/1/1 12/1/1
f 15/1/1 13/1/1 14/1/1
f 18/1/1 17/1/1 16/1/1
f 19/1/1 17/1/1 18/1/1
f 22/1/1 21/1/1 20/1/1
f 23/1/1 21/1/1 22/1/1
f 26/1/1 25/1/1 24/1/1
f 27/1/1 25/1/1 26/1/1
f 30/1/1 29/1/1 28/1/1
f 31/1/1 29/1/1 30/1/1
f 34/1/1 33/1/1 32/1/1
f 35/1/1 33/1/1 34/1/1
f 38/1/1 37/1/1 36/1/1
f 39/1/1 37/1/1 38/1/1
f 42/1/1 41/1/1 40/1/1
f 43/1/1 41/1/1 42/1/1
f 46/1/1 45/1/1 44/1/1
f 47/1/1 45/1/1 46/1/1
f 48/2/2 49/2/2 50/2/2
f 50/2/2 49/2/2 51/2/2
f 51/2/2 49/2/2 52/2/2
f 53/1/2 54/1/2 55/1/2
f 55/1/2 54/1/2 56/1/2
f 57/1/2 58/1/2 59/1/2
f 59/1/2 58/1/2 60/1/2
f 61/1/2 62/1/2 63/1/2
f 63/1/2 62/1/2 64/1/2
f 65/1/2 66/1/2 67/1/2
f 67/1/2 66/1/2 68/1/2
f 69/1/2 70/1/2 71/1/2
f 71/1/2 70/1/2 72/1/2
f 73/1/2 74/1/2 75/1/2
f 75/1/2 74/1/2 76/1/2
f 77/1/2 78/1/2 79/1/2
f 79/1/2 78/1/2 80/1/2
f 81/1/2 82/1/2 83/1/2
f 83/1/2 82/1/2 84/1/2
f 85/1/2 86/1/2 87/1/2
f 87/1/2 86/1/2 88/1/2
f 89/2/2 90/2/2 91/2/2
f 91/2/2 90/2/2 92/2/2
f 92/2/2 90/2/2 93/2/2
f 93/2/2 90/2/2 94/2/2
f 97/2/3 96/2/3 95/2/3
f 98/2/3 96/2/3 97/2/3
f 101/1/3 100/1/3 99/1/3
f 102/1/3 100/1/3 101/1/3
f 103/1/3 101/1/3 99/1/3
f 104/1/3 100/1/3 102/1/3
f 105/1/3 103/1/3 99/1/3
f 105/1/3 104/1/3 103/1/3
f 106/1/3 100/1/3 104/1/3
f 106/1/3 104/1/3 105/1/3
f 107/1/3 105/1/3 99/1/3
f 108/1/3 100/1/3 106/1/3
f 109/1/3 107/1/3 99/1/3
f 109/1/3 108/1/3 107/1/3
f 110/1/3 100/1/3 108/1/3
f 110/1/3 108/1/3 109/1/3
f 111/1/3 109/1/3 99/1/3
f 112/1/3 100/1/3 110/1/3
f 113/1/3 111/1/3 99/1/3
f 113/1/3 112/1/3 111/1/3
f 114/1/3 100/1/3 112/1/3
f 114/1/3 112/1/3 113/1/3
f 115/1/3 113/1/3 99/1/3
f 116/1/3 100/1/3 114/1/3
f 117/1/3 115/1/3 99/1/3
f 117/1/3 116/1/3 115/1/3
f 118/1/3 100/1/3 116/1/3
f 118/1/3 116/1/3 117/1/3
f 119/1/3 117/1/3 99/1/3
f 120/1/3 100/1/3 118/1/3
f 121/1/3 119/1/3 99/1/3
f 121/1/3 120/1/3 119/1/3
f 122/1/3 100/1/3 120/1/3
f 122/1/3 120/1/3 121/1/3
f 123/1/3 121/1/3 99/1/3
f 124/1/3 100/1/3 122/1/3
f 125/1/3 123/1/3 99/1/3
f 125/1/3 124/1/3 123/1/3
f 126/1/3 100/1/3 124/1/3
f 126/1/3 124/1/3 125/1/3
f 127/1/3 125/1/3 99/1/3
f 128/1/3 100/1/3 126/1/3
f 129/1/3 127/1/3 99/1/3
f 129/1/3 128/1/3 127/1/3
f 130/1/3 100/1/3 128/1/3
f 130/1/3 128/1/3 129/1/3
f 131/1/3 129/1/3 99/1/3
f 132/1/3 100/1/3 130/1/3
f 133/1/3 131/1/3 99/1/3
f 133/1/3 132/1/3 131/1/3
f 134/1/3 100/1/3 132/1/3
f 134/1/3 132/1/3 133/1/3
f 137/2/3 136/2/3 135/2/3
f 138/2/3 136/2/3 137/2/3
f 141/2/3 140/2/3 139/2/3
f 142/2/3 140/2/3 141/2/3
f 145/3/3 144/3/3 143/3/3
f 146/3/3 144/3/3 145/3/3
f 149/3/3 148/3/3 147/3/3
f 150/3/3 148/3/3 149/3/3
f 153/3/3 152/3/3 151/3/3
f 154/3/3 152/3/3 153/3/3
f 157/3/3 156/3/3 155/3/3
f 158/3/3 156/3/3 157/3/3
f 161/3/3 160/3/3 159/3/3
f 162/3/3 160/3/3 161/3/3
f 165/3/3 164/3/3 163/3/3
f 166/3/3 164/3/3 165/3/3
f 169/3/3 168/3/3 167/3/3
f 170/3/3 168/3/3 169/3/3
f 173/3/3 172/3/3 171/3/3
f 174/3/3 172/3/3 173/3/3
f 175/2/3 141/2/3 139/2/3
f 176/2/3 140/2/3 142/2/3
f 177/2/3 175/2/3 139/2/3
f 177/2/3 176/2/3 175/2/3
f 178/2/3 140/2/3 176/2/3
f 178/2/3 176/2/3 177/2/3
f 181/2/3 180/2/3 179/2/3
f 182/2/3 180/2/3 181/2/3
f 183/2/4 184/2/4 185/2/4
f 185/2/4 184/2/4 186/2/4
f 187/2/4 188/2/4 189/2/4
f 189/2/4 188/2/4 190/2/4
f 193/2/5 192/2/5 191/2/5
f 194/2/5 192/2/5 193/2/5
f 195/2/5 193/2/5 191/2/5
f 196/2/5 192/2/5 194/2/5
f 197/2/5 195/2/5 191/2/5
f 197/2/5 196/2/5 195/2/5
f 198/2/5 192/2/5 196/2/5
f 198/2/5 196/2/5 197/2/5
f 201/1/5 200/1/5 199/1/5
f 202/1/5 200/1/5 201/1/5
f 219/1/5 204/1/5 203/1/5
f 220/1/5 204/1/5 219/1/5
f 221/1/5 206/1/5 205/1/5
f 222/1/5 206/1/5 221/1/5
f 223/1/5 208/1/5 207/1/5
f 224/1/5 208/1/5 223/1/5
f 225/1/5 210/1/5 209/1/5
f 226/1/5 210/1/5 225/1/5
f 227/1/5 212/1/5 211/1/5
f 228/1/5 212/1/5 227/1/5
f 229/1/5 214/1/5 213/1/5
f 230/1/5 214/1/5 229/1/5
f 231/1/5 216/1/5 215/1/5
f 232/1/5 216/1/5 231/1/5
f 233/1/5 218/1/5 217/1/5
f 234/1/5 218/1/5 233/1/5
f 235/2/6 236/2/6 237/2/6
f 237/2/6 236/2/6 238/2/6
f 238/2/6 236/2/6 239/2/6
f 239/2/6 236/2/6 240/2/6
f 241/1/6 242/1/6 257/1/6
f 257/1/6 242/1/6 258/1/6
f 243/1/6 244/1/6 259/1/6
f 259/1/6 244/1/6 260/1/6
f 245/1/6 246/1/6 261/1/6
f 261/1/6 246/1/6 262/1/6
f 247/1/6 248/1/6 263/1/6
f 263/1/6 248/1/6 264/1/6
f 249/1/6 250/1/6 265/1/6
f 265/1/6 250/1/6 266/1/6
f 251/1/6 252/1/6 267/1/6
f 267/1/6 252/1/6 268/1/6
f 253/1/6 254/1/6 269/1/6
f 269/1/6 254/1/6 270/1/6
f 255/1/6 256/1/6 271/1/6
f 271/1/6 256/1/6 272/1/6
f 273/1/6 274/1/6 275/1/6
f 275/1/6 274/1/6 276/1/6
f 277/2/6 278/2/6 281/2/6
f 279/2/6 280/2/6 282/2/6
f 277/2/6 281/2/6 283/2/6
f 281/2/6 282/2/6 283/2/6
f 282/2/6 280/2/6 284/2/6
f 283/2/6 282/2/6 284/2/6
